<svg viewBox="0 0 77 75" fill="none" xmlns="http://www.w3.org/2000/svg">
<g clip-path="url(#clip0_7_6920)" filter="url(#filter0_d_7_6920)">
<path fill-rule="evenodd" clip-rule="evenodd" d="M29.3016 31.1885H22.5018V33.5506C22.5018 34.1347 22.9785 34.6117 23.562 34.6117H26.0079L27.4669 35.3486L29.3016 34.6117V31.1885H29.3016Z" fill="#FFEF60"/>
<path fill-rule="evenodd" clip-rule="evenodd" d="M28.2414 27.7607H23.5621C22.9785 27.7607 22.5019 28.2377 22.5019 28.8218V30.577H29.3016V28.8218C29.3016 28.2377 28.825 27.7607 28.2414 27.7607Z" fill="#FFEF60"/>
<path fill-rule="evenodd" clip-rule="evenodd" d="M29.3016 30.0479H22.5019V31.7159H29.3016V30.0479Z" fill="#FF814E"/>
<path fill-rule="evenodd" clip-rule="evenodd" d="M23.9235 30.048H23.0527H22.5043V28.8218C22.5043 28.4228 22.7273 28.0742 23.0527 27.8938C23.2055 27.8097 23.3796 27.7607 23.5645 27.7607H24.9838C24.4002 27.7607 23.9236 28.2377 23.9236 28.8218V30.048H23.9235Z" fill="#FFCD1B"/>
<path fill-rule="evenodd" clip-rule="evenodd" d="M23.9185 31.7159H23.0477H22.4992V31.1884V30.5769V30.0479H23.0477H23.9185V30.5769V31.1884V31.7159Z" fill="#FF5A17"/>
<path fill-rule="evenodd" clip-rule="evenodd" d="M23.9236 31.7161V33.5508C23.9236 34.1348 24.4002 34.6118 24.9838 34.6118H23.5645C23.3797 34.6118 23.2056 34.5644 23.0527 34.4804C22.7274 34.2984 22.5043 33.9499 22.5043 33.5508V31.7161H23.0527H23.9236Z" fill="#FFCD1B"/>
<path fill-rule="evenodd" clip-rule="evenodd" d="M29.3012 34.6119H26.0075V36.127C26.0075 36.4909 26.3053 36.7875 26.6674 36.7875H37.3914C37.3914 35.835 37.3914 35.3503 36.6627 35.3503L35.2114 35.3488C34.2978 35.3473 33.6989 35.1133 33.3644 34.6118H29.3012V34.6119Z" fill="#635448"/>
<path fill-rule="evenodd" clip-rule="evenodd" d="M36.0968 36.7874H26.6663C26.1133 37.7506 25.6687 38.908 26.0522 41.1218C26.6938 38.9385 33.211 39.81 33.8801 42.3297H41.0709C41.3429 41.7135 41.5995 41.105 41.8241 40.4904H39.7969C35.6965 38.9431 37.0149 39.6326 36.0968 36.7874V36.7874Z" fill="#FF8C5E"/>
<path fill-rule="evenodd" clip-rule="evenodd" d="M36.6776 30.8689C36.5371 31.6089 36.3461 32.3382 36.1323 32.9589L34.0593 33.7712L31.7478 32.9589C31.8288 28.5847 33.4634 26.487 34.8536 25.8082C35.3547 25.4267 35.868 25.283 35.868 25.283C35.868 25.283 36.5432 26.3632 36.5784 26.3632C36.8381 26.9809 36.9359 27.7866 36.9191 28.6566L36.6776 30.8689Z" fill="#FFFAFA"/>
<path fill-rule="evenodd" clip-rule="evenodd" d="M31.748 32.959H36.1324C37.1423 33.0691 38.3843 33.8381 38.3843 36.2202V38.7169L37.3893 39.3096L36.0958 38.7169V36.7874C36.0958 35.8349 36.0958 35.3502 35.3671 35.3502L33.9158 35.3487C33.0023 35.3471 32.4034 35.1132 32.0689 34.6117C31.8106 34.2249 31.7113 33.6791 31.748 32.959V32.959Z" fill="#FF8086"/>
<path fill-rule="evenodd" clip-rule="evenodd" d="M31.7484 32.9591C31.8293 28.5848 33.464 26.4872 34.8542 25.8083C35.0604 25.9536 35.2896 26.0729 35.5416 26.1615C34.3103 27.0926 33.0759 29.1735 33.0057 32.9591H31.7484Z" fill="#FFC8C8"/>
<path fill-rule="evenodd" clip-rule="evenodd" d="M31.7489 32.959H33.0062C32.9695 33.6791 33.0688 34.2249 33.327 34.6118C33.5378 34.9283 33.8556 35.1958 34.291 35.3487H33.9167C33.0031 35.3472 32.4043 35.1132 32.0697 34.6118C31.8116 34.2249 31.7123 33.6791 31.7489 32.959V32.959Z" fill="#F76672"/>
<path fill-rule="evenodd" clip-rule="evenodd" d="M33.8771 42.3297C33.8771 40.0684 32.0851 38.2673 29.8745 38.2673C28.0764 38.2673 26.5549 39.4599 26.0492 41.1218C25.9453 41.4628 25.8842 41.8251 25.8735 42.2012C25.8689 42.348 25.9698 42.3297 26.1073 42.3297C28.6967 42.3297 31.2877 42.3281 33.8771 42.3297V42.3297Z" fill="#FF8C5D"/>
<path fill-rule="evenodd" clip-rule="evenodd" d="M32.8745 42.3298H26.7821C26.8691 43.9719 28.1997 45.2776 29.8283 45.2776C31.4568 45.2776 32.7875 43.9719 32.8745 42.3298V42.3298Z" fill="#2A333E"/>
<path fill-rule="evenodd" clip-rule="evenodd" d="M48.3451 41.6799L43.1036 42.8863C43.4366 44.3342 44.8803 45.2393 46.327 44.906C47.7752 44.5727 48.6781 43.1278 48.3451 41.6799V41.6799Z" fill="#2A333E"/>
<path fill-rule="evenodd" clip-rule="evenodd" d="M48.7374 40.2105C47.9965 39.1326 46.7102 38.5073 45.3658 38.6419C42.9948 39.1434 42.2233 40.5607 42.069 42.3281C42.0721 42.5681 42.0981 42.8097 42.15 43.0513C42.1653 43.1186 42.2096 43.0911 42.283 43.0742L43.1034 42.8861L48.3449 41.6798L48.7375 41.5896L49.2859 41.4627C49.1805 41.001 48.991 40.579 48.7374 40.2105Z" fill="#FFFAFA"/>
<path fill-rule="evenodd" clip-rule="evenodd" d="M45.3672 38.6359L43.2498 31.3094L42.2965 30.8828L41.2302 31.3094C42.6311 35.1929 42.24 37.9036 41.2943 40.4905C41.0682 41.1052 40.8116 41.7137 40.5412 42.3298H42.0643L45.3672 38.6359Z" fill="#FF814E"/>
<path fill-rule="evenodd" clip-rule="evenodd" d="M38.8142 23.0944L36.3301 22.5654C36.0781 22.5883 35.357 23.1938 35.357 23.573L35.8855 26.2608C36.1055 26.3266 36.3393 26.3633 36.5806 26.3633C37.9036 26.3633 38.9761 25.2885 38.9761 23.9644C38.9761 23.6571 38.9196 23.3635 38.8142 23.0944V23.0944Z" fill="#FFECE4"/>
<path fill-rule="evenodd" clip-rule="evenodd" d="M39.6125 23.0945C39.6125 21.3851 38.259 20.0015 36.5877 20.0015C34.9164 20.0015 33.5629 21.3851 33.5629 23.0945C33.5629 24.2228 34.0212 25.2258 34.8523 25.8083C35.1486 26.0177 35.4939 26.1722 35.8819 26.2608V23.573C35.8819 23.1938 36.0744 23.1174 36.3265 23.0944H38.8105H39.6125V23.0945Z" fill="#FF8C5D"/>
<path fill-rule="evenodd" clip-rule="evenodd" d="M38.1725 20.4586C37.7126 20.1681 37.1703 20.0015 36.5898 20.0015C34.9185 20.0015 33.565 21.3851 33.565 23.0945C33.565 24.2228 34.0233 25.2258 34.8544 25.8083C35.0652 25.9566 35.2989 26.0774 35.5556 26.1661C34.9415 25.5438 34.6084 24.6509 34.6084 23.6663C34.6084 21.8805 36.0246 20.4326 37.7708 20.4326C37.9067 20.4326 38.0411 20.4402 38.1725 20.4586Z" fill="#FF5A17"/>
<path fill-rule="evenodd" clip-rule="evenodd" d="M38.387 38.7168H36.0984V40.1586C36.0984 40.4675 36.2665 40.4904 36.514 40.4904H39.7985C39.8643 39.044 38.9889 38.7168 38.387 38.7168Z" fill="#635448"/>
<path fill-rule="evenodd" clip-rule="evenodd" d="M41.2983 40.4905C42.2439 37.9036 42.635 35.1928 41.2341 31.3093H42.0194C42.0224 31.3093 42.0255 31.3093 42.0285 31.3093H42.3111C43.712 35.1928 43.3225 37.9035 42.3753 40.4905C42.1507 41.1051 41.8941 41.7136 41.6221 42.3298H41.0722H40.5451C40.8155 41.7136 41.0722 41.1051 41.2983 40.4905Z" fill="#FF5A17"/>
<path fill-rule="evenodd" clip-rule="evenodd" d="M42.0703 42.3282L45.367 38.642C45.7077 38.6084 46.0453 38.6221 46.3707 38.6818L43.2023 42.2242C43.2053 42.4306 43.2252 42.6401 43.2649 42.8495L43.1045 42.8862L42.2841 43.0743C42.2108 43.0911 42.1665 43.1187 42.1512 43.0514C42.0993 42.8098 42.0733 42.5683 42.0703 42.3282V42.3282Z" fill="#FFC8C8"/>
<path fill-rule="evenodd" clip-rule="evenodd" d="M26.6667 36.7874H36.0972V37.6175H28.3487C27.7178 37.6175 27.4184 37.8897 27.1724 38.4416C26.96 38.9202 26.9554 39.0762 26.8592 39.6541C26.4971 40.0745 26.2191 40.573 26.0526 41.1218C25.6692 38.9079 26.1137 37.7506 26.6667 36.7874V36.7874Z" fill="#FF5A17"/>
<path fill-rule="evenodd" clip-rule="evenodd" d="M26.8584 39.654C27.5917 38.8024 28.6718 38.2673 29.8771 38.2673C30.1796 38.2673 30.4729 38.301 30.7555 38.3636C28.9513 38.7719 27.6894 40.365 27.6344 42.2012C27.6314 42.3021 27.6772 42.3251 27.7505 42.3297H26.7804H26.1098C25.9723 42.3297 25.8714 42.348 25.876 42.2012C25.8867 41.8251 25.9478 41.4628 26.0517 41.1218C26.0547 41.1111 26.0578 41.1019 26.0608 41.0928C26.0608 41.0928 26.0608 41.0928 26.0608 41.0913C26.2289 40.5546 26.5024 40.0669 26.8584 39.654Z" fill="#FF5A17"/>
<path fill-rule="evenodd" clip-rule="evenodd" d="M43.2648 42.8495L48.3459 41.6799C48.4024 41.92 48.4223 42.1615 48.4131 42.397L44.3801 43.3251L44.2212 43.3617C44.3709 44.0192 44.7513 44.565 45.257 44.9335C44.2258 44.7515 43.3534 43.9718 43.1044 42.8863L43.2648 42.8495Z" fill="#635448"/>
<path fill-rule="evenodd" clip-rule="evenodd" d="M27.751 42.3296H32.8734C32.8566 42.6507 32.7909 42.9596 32.6855 43.2485H29.1168H28.1467C28.1849 43.9671 28.4599 44.6199 28.8938 45.129C27.7159 44.7422 26.8498 43.6429 26.781 42.3296H27.751V42.3296Z" fill="#635448"/>
<path fill-rule="evenodd" clip-rule="evenodd" d="M26.0065 36.127V34.6118H28.0765V36.127C28.0765 36.4909 28.3744 36.7874 28.7365 36.7874H26.6664C26.3043 36.7875 26.0065 36.4909 26.0065 36.127Z" fill="#2A333E"/>
<path fill-rule="evenodd" clip-rule="evenodd" d="M38.9612 23.7076H36.9202C36.6681 23.7305 36.4756 23.8085 36.4756 24.1877V26.3603C36.2709 26.3511 36.0723 26.3175 35.8829 26.2609V23.5731C35.8829 23.1939 36.0753 23.1174 36.3274 23.0945H38.8115C38.8863 23.2872 38.9383 23.4935 38.9612 23.7076V23.7076Z" fill="#FFDDCE"/>
<path fill-rule="evenodd" clip-rule="evenodd" d="M43.6956 29.0023L40.8373 29.9472C40.6967 30.0725 40.8556 31.3507 40.9503 31.3094H43.2541H44.2731V29.2057C44.2731 28.7913 44.0576 28.883 43.6956 29.0023V29.0023Z" fill="#FFE07D"/>
<path fill-rule="evenodd" clip-rule="evenodd" d="M39.5071 31.3094H39.747H40.9523C41.7284 31.3094 41.7513 30.022 40.8393 29.9471L39.5071 29.8401L39.1497 30.5969L39.5071 31.3094Z" fill="#FFECE4"/>
<path fill-rule="evenodd" clip-rule="evenodd" d="M36.9206 28.6566L36.4424 28.2453C35.2447 27.2133 33.7307 28.9547 35.3318 29.9943L36.6792 30.8689L37.3575 31.3092H39.5039V29.8399L38.1703 29.7314L36.9206 28.6566Z" fill="#FF8086"/>
<path fill-rule="evenodd" clip-rule="evenodd" d="M39.5067 31.3094V30.597H39.7924H39.9467H40.1881H41.3934C41.4392 30.597 41.482 30.5939 41.5233 30.5847C41.5676 30.9394 41.3674 31.3094 40.9519 31.3094H39.7465H39.5067Z" fill="#FFDDCE"/>
<path fill-rule="evenodd" clip-rule="evenodd" d="M35.3318 29.9944C34.3632 29.3645 34.5343 28.4793 35.0858 28.1062C35.0415 28.4884 35.2233 28.9272 35.7732 29.2835L36.8228 29.9638L37.1191 30.158L37.7975 30.5968H39.5039V31.3093H37.3575L36.6792 30.869L35.3318 29.9944Z" fill="#F76672"/>
<path fill-rule="evenodd" clip-rule="evenodd" d="M40.837 29.947L41.9874 29.5679C42.3723 29.9807 42.5587 30.7849 42.3112 31.3093H41.2342H40.9501C41.3656 31.3093 41.5657 30.9393 41.5215 30.5846C41.4817 30.2773 41.2602 29.9822 40.837 29.947V29.947Z" fill="#FFC269"/>
</g>
<defs>
<filter id="filter0_d_7_6920" x="0.584838" y="-0.233209" width="75.4851" height="75.4852" filterUnits="userSpaceOnUse" color-interpolation-filters="sRGB">
<feFlood flood-opacity="0" result="BackgroundImageFix"/>
<feColorMatrix in="SourceAlpha" type="matrix" values="0 0 0 0 0 0 0 0 0 0 0 0 0 0 0 0 0 0 127 0" result="hardAlpha"/>
<feOffset dx="2.435" dy="4.87001"/>
<feGaussianBlur stdDeviation="12.175"/>
<feColorMatrix type="matrix" values="0 0 0 0 1 0 0 0 0 0.466667 0 0 0 0 0.491863 0 0 0 0.6 0"/>
<feBlend mode="normal" in2="BackgroundImageFix" result="effect1_dropShadow_7_6920"/>
<feBlend mode="normal" in="SourceGraphic" in2="effect1_dropShadow_7_6920" result="shape"/>
</filter>
<clipPath id="clip0_7_6920">
<rect width="26.7851" height="26.7851" fill="white" transform="matrix(-1 0 0 1 49.2849 19.2468)"/>
</clipPath>
</defs>
</svg>
